<?xml version="1.0" encoding="UTF-8"?>
<svg xmlns="http://www.w3.org/2000/svg" width="2480" height="1754" viewBox="0 0 2480 1754">
<title>Sample 2BHK - Elevations - Common Bathroom</title>
<rect width="2480" height="1754" fill="#ffffff"/>
<polygon points="30.00,30.00 2450.00,30.00 2450.00,1724.00 30.00,1724.00" fill="none" stroke="#000000" stroke-width="2.50"/>
<polygon points="48.00,48.00 2432.00,48.00 2432.00,1706.00 48.00,1706.00" fill="none" stroke="#000000" stroke-width="1.00"/>
<polygon points="1712.00,1496.00 2432.00,1496.00 2432.00,1706.00 1712.00,1706.00" fill="#ffffff" stroke="#000000" stroke-width="2.00"/>
<line x1="1712.00" y1="1554.00" x2="2432.00" y2="1554.00" stroke="#000000" stroke-width="1.00" stroke-linecap="round"/>
<line x1="1712.00" y1="1614.00" x2="2432.00" y2="1614.00" stroke="#000000" stroke-width="1.00" stroke-linecap="round"/>
<line x1="2182.00" y1="1614.00" x2="2182.00" y2="1706.00" stroke="#000000" stroke-width="1.00" stroke-linecap="round"/>
<text x="1730.00" y="1525.00" font-family="DejaVu Sans, Arial, sans-serif" font-size="20.00" fill="#000000" text-anchor="start" dominant-baseline="central" font-weight="bold">HOUSEFORGE  /  INTERIOR DESIGN SET</text>
<text x="1730.00" y="1584.00" font-family="DejaVu Sans, Arial, sans-serif" font-size="26.00" fill="#000000" text-anchor="start" dominant-baseline="central" font-weight="bold">Sample 2BHK</text>
<text x="1730.00" y="1636.00" font-family="DejaVu Sans, Arial, sans-serif" font-size="13.00" fill="#787878" text-anchor="start" dominant-baseline="central">DRAWING</text>
<text x="1730.00" y="1668.00" font-family="DejaVu Sans, Arial, sans-serif" font-size="19.00" fill="#000000" text-anchor="start" dominant-baseline="central" font-weight="bold">ELEVATIONS - COMMON BATHROOM</text>
<text x="2200.00" y="1636.00" font-family="DejaVu Sans, Arial, sans-serif" font-size="13.00" fill="#787878" text-anchor="start" dominant-baseline="central">SHEET</text>
<text x="2200.00" y="1668.00" font-family="DejaVu Sans, Arial, sans-serif" font-size="19.00" fill="#000000" text-anchor="start" dominant-baseline="central" font-weight="bold">07 / 10</text>
<text x="70.00" y="82.00" font-family="DejaVu Sans, Arial, sans-serif" font-size="30.00" fill="#000000" text-anchor="start" dominant-baseline="central" font-weight="bold">ELEVATIONS - COMMON BATHROOM</text>
<text x="70.00" y="118.00" font-family="DejaVu Sans, Arial, sans-serif" font-size="15.00" fill="#787878" text-anchor="start" dominant-baseline="central">ALL DIMENSIONS IN MILLIMETERS</text>
<polygon points="550.36,320.20 839.64,320.20 839.64,681.80 550.36,681.80" fill="#fafafa" stroke="#000000" stroke-width="1.60"/>
<line x1="516.36" y1="681.80" x2="873.64" y2="681.80" stroke="#000000" stroke-width="3.00" stroke-linecap="round"/>
<line x1="530.36" y1="320.20" x2="859.64" y2="320.20" stroke="#787878" stroke-width="1.40" stroke-linecap="round"/>
<line x1="550.36" y1="368.41" x2="839.64" y2="368.41" stroke="#8c2882" stroke-width="1.80" stroke-dasharray="16 8" stroke-linecap="round"/>
<text x="847.64" y="368.41" font-family="DejaVu Sans, Arial, sans-serif" font-size="11.00" fill="#8c2882" text-anchor="start" dominant-baseline="central">FC 2600</text>
<polygon points="640.76,428.68 749.24,428.68 749.24,681.80 640.76,681.80" fill="none" stroke="#b9b9b9" stroke-width="1.00" stroke-dasharray="5 5"/>
<circle cx="695.00" cy="442.68" r="9.00" fill="none" stroke="#464646" stroke-width="1.20"/>
<polygon points="789.74,633.59 817.22,633.59 817.22,681.80 789.74,681.80" fill="none" stroke="#464646" stroke-width="1.30"/>
<polygon points="780.58,590.19 826.38,590.19 826.38,633.59 780.58,633.59" fill="none" stroke="#787878" stroke-width="1.00"/>
<polygon points="565.43,561.27 631.72,561.27 631.72,585.37 565.43,585.37" fill="none" stroke="#464646" stroke-width="1.30"/>
<line x1="565.43" y1="573.32" x2="631.72" y2="573.32" stroke="#b9b9b9" stroke-width="0.90" stroke-linecap="round"/>
<line x1="550.36" y1="721.80" x2="839.64" y2="721.80" stroke="#5a5a5a" stroke-width="1.20" stroke-linecap="round"/>
<line x1="550.36" y1="681.80" x2="550.36" y2="729.80" stroke="#b9b9b9" stroke-width="0.80" stroke-linecap="round"/>
<line x1="839.64" y1="681.80" x2="839.64" y2="729.80" stroke="#b9b9b9" stroke-width="0.80" stroke-linecap="round"/>
<text x="695.00" y="707.80" font-family="DejaVu Sans, Arial, sans-serif" font-size="14.00" fill="#5a5a5a" text-anchor="middle" dominant-baseline="central">2400</text>
<line x1="506.36" y1="320.20" x2="506.36" y2="681.80" stroke="#5a5a5a" stroke-width="1.20" stroke-linecap="round"/>
<text x="492.36" y="501.00" font-family="DejaVu Sans, Arial, sans-serif" font-size="14.00" fill="#5a5a5a" text-anchor="middle" dominant-baseline="central" transform="rotate(-90.00 492.36 501.00)">3000</text>
<text x="695.00" y="758.00" font-family="DejaVu Sans, Arial, sans-serif" font-size="19.00" fill="#000000" text-anchor="middle" dominant-baseline="central" font-weight="bold">ELEVATION A</text>
<text x="695.00" y="784.00" font-family="DejaVu Sans, Arial, sans-serif" font-size="12.00" fill="#787878" text-anchor="middle" dominant-baseline="central">LOOKING NORTH</text>
<polygon points="1676.52,320.20 1893.48,320.20 1893.48,681.80 1676.52,681.80" fill="#fafafa" stroke="#000000" stroke-width="1.60"/>
<line x1="1642.52" y1="681.80" x2="1927.48" y2="681.80" stroke="#000000" stroke-width="3.00" stroke-linecap="round"/>
<line x1="1656.52" y1="320.20" x2="1913.48" y2="320.20" stroke="#787878" stroke-width="1.40" stroke-linecap="round"/>
<line x1="1676.52" y1="368.41" x2="1893.48" y2="368.41" stroke="#8c2882" stroke-width="1.80" stroke-dasharray="16 8" stroke-linecap="round"/>
<text x="1901.48" y="368.41" font-family="DejaVu Sans, Arial, sans-serif" font-size="11.00" fill="#8c2882" text-anchor="start" dominant-baseline="central">FC 2600</text>
<polygon points="1778.97,428.68 1887.45,428.68 1887.45,681.80 1778.97,681.80" fill="none" stroke="#b9b9b9" stroke-width="1.00" stroke-dasharray="5 5"/>
<circle cx="1833.21" cy="442.68" r="9.00" fill="none" stroke="#464646" stroke-width="1.20"/>
<polygon points="1690.98,633.59 1734.38,633.59 1734.38,681.80 1690.98,681.80" fill="none" stroke="#464646" stroke-width="1.30"/>
<polygon points="1676.52,590.19 1748.84,590.19 1748.84,633.59 1676.52,633.59" fill="none" stroke="#787878" stroke-width="1.00"/>
<polygon points="1748.84,374.44 1821.16,374.44 1821.16,428.68 1748.84,428.68" fill="#ffffff" stroke="#000000" stroke-width="1.80"/>
<line x1="1785.00" y1="374.44" x2="1785.00" y2="428.68" stroke="#000000" stroke-width="1.20" stroke-linecap="round"/>
<line x1="1748.84" y1="401.56" x2="1821.16" y2="401.56" stroke="#b9b9b9" stroke-width="1.00" stroke-linecap="round"/>
<text x="1785.00" y="360.44" font-family="DejaVu Sans, Arial, sans-serif" font-size="11.00" fill="#5a5a5a" text-anchor="middle" dominant-baseline="central">Vent_MBath</text>
<polygon points="1739.80,428.68 1830.20,428.68 1830.20,681.80 1739.80,681.80" fill="#ffffff" stroke="#000000" stroke-width="1.80"/>
<polygon points="1746.80,435.68 1823.20,435.68 1823.20,674.80 1746.80,674.80" fill="none" stroke="#787878" stroke-width="1.00"/>
<circle cx="1812.20" cy="555.24" r="3.40" fill="#464646" stroke="#464646" stroke-width="1.00"/>
<text x="1785.00" y="414.68" font-family="DejaVu Sans, Arial, sans-serif" font-size="11.00" fill="#5a5a5a" text-anchor="middle" dominant-baseline="central">D_MBath</text>
<line x1="1676.52" y1="721.80" x2="1893.48" y2="721.80" stroke="#5a5a5a" stroke-width="1.20" stroke-linecap="round"/>
<line x1="1676.52" y1="681.80" x2="1676.52" y2="729.80" stroke="#b9b9b9" stroke-width="0.80" stroke-linecap="round"/>
<line x1="1893.48" y1="681.80" x2="1893.48" y2="729.80" stroke="#b9b9b9" stroke-width="0.80" stroke-linecap="round"/>
<text x="1785.00" y="707.80" font-family="DejaVu Sans, Arial, sans-serif" font-size="14.00" fill="#5a5a5a" text-anchor="middle" dominant-baseline="central">1800</text>
<line x1="1632.52" y1="320.20" x2="1632.52" y2="681.80" stroke="#5a5a5a" stroke-width="1.20" stroke-linecap="round"/>
<text x="1618.52" y="501.00" font-family="DejaVu Sans, Arial, sans-serif" font-size="14.00" fill="#5a5a5a" text-anchor="middle" dominant-baseline="central" transform="rotate(-90.00 1618.52 501.00)">3000</text>
<text x="1785.00" y="758.00" font-family="DejaVu Sans, Arial, sans-serif" font-size="19.00" fill="#000000" text-anchor="middle" dominant-baseline="central" font-weight="bold">ELEVATION B</text>
<text x="1785.00" y="784.00" font-family="DejaVu Sans, Arial, sans-serif" font-size="12.00" fill="#787878" text-anchor="middle" dominant-baseline="central">LOOKING WEST</text>
<polygon points="550.36,942.20 839.64,942.20 839.64,1303.80 550.36,1303.80" fill="#fafafa" stroke="#000000" stroke-width="1.60"/>
<line x1="516.36" y1="1303.80" x2="873.64" y2="1303.80" stroke="#000000" stroke-width="3.00" stroke-linecap="round"/>
<line x1="530.36" y1="942.20" x2="859.64" y2="942.20" stroke="#787878" stroke-width="1.40" stroke-linecap="round"/>
<line x1="550.36" y1="990.41" x2="839.64" y2="990.41" stroke="#8c2882" stroke-width="1.80" stroke-dasharray="16 8" stroke-linecap="round"/>
<text x="847.64" y="990.41" font-family="DejaVu Sans, Arial, sans-serif" font-size="11.00" fill="#8c2882" text-anchor="start" dominant-baseline="central">FC 2600</text>
<polygon points="640.76,1050.68 749.24,1050.68 749.24,1303.80 640.76,1303.80" fill="none" stroke="#b9b9b9" stroke-width="1.00" stroke-dasharray="5 5"/>
<circle cx="695.00" cy="1064.68" r="9.00" fill="none" stroke="#464646" stroke-width="1.20"/>
<polygon points="676.92,1050.68 785.40,1050.68 785.40,1303.80 676.92,1303.80" fill="#ffffff" stroke="#000000" stroke-width="1.80"/>
<polygon points="683.92,1057.68 778.40,1057.68 778.40,1296.80 683.92,1296.80" fill="none" stroke="#787878" stroke-width="1.00"/>
<circle cx="767.40" cy="1177.24" r="3.40" fill="#464646" stroke="#464646" stroke-width="1.00"/>
<text x="731.16" y="1036.68" font-family="DejaVu Sans, Arial, sans-serif" font-size="11.00" fill="#5a5a5a" text-anchor="middle" dominant-baseline="central">D_MBed</text>
<line x1="550.36" y1="1343.80" x2="839.64" y2="1343.80" stroke="#5a5a5a" stroke-width="1.20" stroke-linecap="round"/>
<line x1="550.36" y1="1303.80" x2="550.36" y2="1351.80" stroke="#b9b9b9" stroke-width="0.80" stroke-linecap="round"/>
<line x1="839.64" y1="1303.80" x2="839.64" y2="1351.80" stroke="#b9b9b9" stroke-width="0.80" stroke-linecap="round"/>
<text x="695.00" y="1329.80" font-family="DejaVu Sans, Arial, sans-serif" font-size="14.00" fill="#5a5a5a" text-anchor="middle" dominant-baseline="central">2400</text>
<line x1="506.36" y1="942.20" x2="506.36" y2="1303.80" stroke="#5a5a5a" stroke-width="1.20" stroke-linecap="round"/>
<text x="492.36" y="1123.00" font-family="DejaVu Sans, Arial, sans-serif" font-size="14.00" fill="#5a5a5a" text-anchor="middle" dominant-baseline="central" transform="rotate(-90.00 492.36 1123.00)">3000</text>
<text x="695.00" y="1380.00" font-family="DejaVu Sans, Arial, sans-serif" font-size="19.00" fill="#000000" text-anchor="middle" dominant-baseline="central" font-weight="bold">ELEVATION C</text>
<text x="695.00" y="1406.00" font-family="DejaVu Sans, Arial, sans-serif" font-size="12.00" fill="#787878" text-anchor="middle" dominant-baseline="central">LOOKING SOUTH</text>
<polygon points="1676.52,942.20 1893.48,942.20 1893.48,1303.80 1676.52,1303.80" fill="#fafafa" stroke="#000000" stroke-width="1.60"/>
<line x1="1642.52" y1="1303.80" x2="1927.48" y2="1303.80" stroke="#000000" stroke-width="3.00" stroke-linecap="round"/>
<line x1="1656.52" y1="942.20" x2="1913.48" y2="942.20" stroke="#787878" stroke-width="1.40" stroke-linecap="round"/>
<line x1="1676.52" y1="990.41" x2="1893.48" y2="990.41" stroke="#8c2882" stroke-width="1.80" stroke-dasharray="16 8" stroke-linecap="round"/>
<text x="1901.48" y="990.41" font-family="DejaVu Sans, Arial, sans-serif" font-size="11.00" fill="#8c2882" text-anchor="start" dominant-baseline="central">FC 2600</text>
<polygon points="1682.55,1050.68 1791.03,1050.68 1791.03,1303.80 1682.55,1303.80" fill="none" stroke="#b9b9b9" stroke-width="1.00" stroke-dasharray="5 5"/>
<circle cx="1736.79" cy="1064.68" r="9.00" fill="none" stroke="#464646" stroke-width="1.20"/>
<polygon points="1830.20,1183.27 1884.44,1183.27 1884.44,1207.37 1830.20,1207.37" fill="none" stroke="#464646" stroke-width="1.30"/>
<line x1="1830.20" y1="1195.32" x2="1884.44" y2="1195.32" stroke="#b9b9b9" stroke-width="0.90" stroke-linecap="round"/>
<polygon points="1748.84,996.44 1821.16,996.44 1821.16,1050.68 1748.84,1050.68" fill="#ffffff" stroke="#000000" stroke-width="1.80"/>
<line x1="1785.00" y1="996.44" x2="1785.00" y2="1050.68" stroke="#000000" stroke-width="1.20" stroke-linecap="round"/>
<line x1="1748.84" y1="1023.56" x2="1821.16" y2="1023.56" stroke="#b9b9b9" stroke-width="1.00" stroke-linecap="round"/>
<text x="1785.00" y="982.44" font-family="DejaVu Sans, Arial, sans-serif" font-size="11.00" fill="#5a5a5a" text-anchor="middle" dominant-baseline="central">Vent_CBath</text>
<polygon points="1739.80,1050.68 1830.20,1050.68 1830.20,1303.80 1739.80,1303.80" fill="#ffffff" stroke="#000000" stroke-width="1.80"/>
<polygon points="1746.80,1057.68 1823.20,1057.68 1823.20,1296.80 1746.80,1296.80" fill="none" stroke="#787878" stroke-width="1.00"/>
<circle cx="1812.20" cy="1177.24" r="3.40" fill="#464646" stroke="#464646" stroke-width="1.00"/>
<text x="1785.00" y="1036.68" font-family="DejaVu Sans, Arial, sans-serif" font-size="11.00" fill="#5a5a5a" text-anchor="middle" dominant-baseline="central">D_CBath</text>
<line x1="1676.52" y1="1343.80" x2="1893.48" y2="1343.80" stroke="#5a5a5a" stroke-width="1.20" stroke-linecap="round"/>
<line x1="1676.52" y1="1303.80" x2="1676.52" y2="1351.80" stroke="#b9b9b9" stroke-width="0.80" stroke-linecap="round"/>
<line x1="1893.48" y1="1303.80" x2="1893.48" y2="1351.80" stroke="#b9b9b9" stroke-width="0.80" stroke-linecap="round"/>
<text x="1785.00" y="1329.80" font-family="DejaVu Sans, Arial, sans-serif" font-size="14.00" fill="#5a5a5a" text-anchor="middle" dominant-baseline="central">1800</text>
<line x1="1632.52" y1="942.20" x2="1632.52" y2="1303.80" stroke="#5a5a5a" stroke-width="1.20" stroke-linecap="round"/>
<text x="1618.52" y="1123.00" font-family="DejaVu Sans, Arial, sans-serif" font-size="14.00" fill="#5a5a5a" text-anchor="middle" dominant-baseline="central" transform="rotate(-90.00 1618.52 1123.00)">3000</text>
<text x="1785.00" y="1380.00" font-family="DejaVu Sans, Arial, sans-serif" font-size="19.00" fill="#000000" text-anchor="middle" dominant-baseline="central" font-weight="bold">ELEVATION D</text>
<text x="1785.00" y="1406.00" font-family="DejaVu Sans, Arial, sans-serif" font-size="12.00" fill="#787878" text-anchor="middle" dominant-baseline="central">LOOKING EAST</text>
<text x="88.00" y="1632.00" font-family="DejaVu Sans, Arial, sans-serif" font-size="15.00" fill="#000000" text-anchor="start" dominant-baseline="central">COMMON BATHROOM   2400 x 1800   4.32 SQM   CEILING 3000</text>
</svg>